<svg width="52" height="52" viewBox="0 0 52 52" fill="none" xmlns="http://www.w3.org/2000/svg">
<path class="fill-red-1 duration-500 group-[.nav-open]/html:fill-stone-white" d="M32.675 27.2588L33.4511 27.1036L32.675 21.1511H26.429V22.1869H30.6062L32.675 27.2588ZM31.3795 39.0113H23.8719L23.3554 38.4948L23.3498 30.8094H27.2362L28.2974 34.5604H29.0482V26.0169H28.2974L27.2362 29.7707H24.3517H23.8747L23.3582 29.2542V22.7034L23.8747 22.1869H25.4242V21.1511H23.3498V16.6127H23.3582V13.4657L23.8747 12.9492H25.4242V11.9134H18.6984V12.9492H20.2508L20.7673 13.4657V21.1511H18.6984V22.1869H20.2508L20.7673 22.7034V29.2542L20.2508 29.7707H18.6984V30.8066H20.7701V38.492L20.2536 39.0085H18.7013V40.0443H33.454L34.2301 34.0918L33.454 33.9366L31.3795 39.0113ZM44.388 7.61485C39.477 2.70386 32.9488 0 26.0028 0C19.0569 0 12.5258 2.70386 7.61485 7.61485C2.70386 12.5258 0 19.0541 0 26C0 32.9459 2.70386 39.4742 7.61485 44.3852C12.5258 49.2961 19.0569 52 26 52C32.9459 52 39.4742 49.2961 44.3852 44.3852C49.2961 39.4742 52 32.9431 52 26C52.0028 19.0541 49.299 12.5258 44.388 7.61485ZM43.5779 43.5779C38.8843 48.2716 32.6411 50.8597 26.0028 50.8597C19.3645 50.8597 13.1214 48.2744 8.4277 43.5779C3.73122 38.8815 1.1459 32.6383 1.1459 26C1.1459 19.3617 3.73122 13.1185 8.42488 8.42488C13.1214 3.73122 19.3617 1.1459 26.0028 1.1459C32.6411 1.1459 38.8843 3.73122 43.5779 8.42488C48.2716 13.1185 50.8569 19.3617 50.8569 26C50.8569 32.6383 48.2716 38.8815 43.5779 43.5779Z" fill="#2F302E"></path>
</svg>